Coordinates
version=1
nRows=15
nColumns=42
inDegrees=yes

Units are S.I. units (second, meters, Newtons, ...)
If the header above contains a line with 'inDegrees', this indicates whether rotational values are in degrees (yes) or radians (no).

endheader
time	pelvis_tilt	pelvis_list	pelvis_rotation	pelvis_tx	pelvis_ty	pelvis_tz	hip_flexion_r	hip_adduction_r	hip_rotation_r	knee_angle_r	knee_angle_r_beta	ankle_angle_r	subtalar_angle_r	mtp_angle_r	hip_flexion_l	hip_adduction_l	hip_rotation_l	knee_angle_l	knee_angle_l_beta	ankle_angle_l	subtalar_angle_l	mtp_angle_l	lumbar_extension	lumbar_bending	lumbar_rotation	sh_tx_r	sh_ty_r	sh_tz_r	sh_plane_elev_r	sh_elev_r	sh_axial_rot_r	elbow_flex_r	pro_sup_r	sh_tx_l	sh_ty_l	sh_tz_l	sh_plane_elev_l	sh_elev_l	sh_axial_rot_l	elbow_flex_l	pro_sup_l
      1.63333330	     -5.47032910	     -1.10336160	      2.80111217	      0.25911096	      0.93629724	     -0.07640882	      0.88105891	     -4.31401528	     -8.71716737	      1.79727023	      0.03136828	      3.38380939	     -7.80809585	     -7.49999987	      5.18641642	     -3.63369126	     -5.38881807	      1.10895697	      0.01935495	      5.78844334	      1.05807741	     -7.49999987	      2.02820674	      2.10376351	     -4.10468979	     -0.01451711	     -0.00678940	     -0.00517413	     -8.89885902	      7.06746801	      4.02360814	     27.33680817	     97.93784463	     -0.01488826	      0.02277451	     -0.00512388	     75.98187815	     71.22157489	    -35.22068302	     18.56200474	      7.58471808
      1.65000000	     -5.20805632	     -1.05375409	      2.76390365	      0.25917355	      0.93913699	     -0.07615292	      0.31492071	     -4.32650895	     -8.58153069	      1.15966818	      0.02024003	      3.05502557	     -7.88016729	     -7.49999987	      4.61458668	     -3.56933060	     -5.52616916	      0.59683433	      0.01041672	      5.62675386	      1.37765447	     -7.49999987	      1.59796397	      1.63119580	     -3.37517705	     -0.01819490	     -0.00984188	     -0.00488838	     -8.77199357	      6.87007667	      2.76751637	     27.14563379	    102.38570313	     -0.01609422	      0.02248293	     -0.00525098	     77.58411111	     72.32693801	    -32.54027765	     16.41214567	      3.40626604
      1.66666670	     -5.04036553	     -1.06936485	      2.80692024	      0.25943943	      0.93623440	     -0.07631330	      0.10122413	     -4.31160776	     -8.56988075	      1.08550394	      0.01894562	      2.99411159	     -7.99907050	     -7.49999987	      4.40865001	     -3.59514155	     -5.53651481	      0.60248562	      0.01051536	      5.76289627	      1.58323758	     -7.49999987	      1.42286788	      1.68799078	     -4.50759686	     -0.01480655	     -0.00990547	     -0.00496932	     -7.52684931	      7.02121901	      3.67782283	     27.55103230	    100.60133681	     -0.02006942	      0.02311322	     -0.00527457	     76.52827254	     72.74175257	    -34.07714078	     16.66960173	      3.91865238
      1.68333330	     -5.07382125	     -1.05520105	      2.68210521	      0.25901470	      0.93862194	     -0.07607204	      0.18682212	     -4.35339622	     -8.59848859	      1.06606872	      0.01860641	      3.19841108	     -7.56923640	     -7.49999987	      4.42646860	     -3.58301103	     -5.66869388	      0.59497713	      0.01038431	      5.77711999	      1.54441408	     -7.49999987	      1.52317563	      1.55852748	     -2.97488915	     -0.01877523	     -0.01042629	     -0.00486550	     -8.96604397	      6.89168854	      2.96163103	     26.84175034	    105.17797316	     -0.01563652	      0.02260574	     -0.00526445	     77.92381391	     73.28912715	    -32.58550029	     16.34235424	      3.41629323
      1.70000000	     -5.02531530	     -1.05890897	      2.64017980	      0.25902219	      0.93519047	     -0.07578679	      0.15028430	     -4.35301411	     -8.47519725	      1.06585060	      0.01860260	      3.15514845	     -7.67096325	     -7.49999987	      4.34532673	     -3.57071626	     -5.78897952	      0.61133928	      0.01066988	      5.88068384	      1.61361033	     -7.49999987	      1.62271029	      1.57558465	     -3.36009803	     -0.01723699	     -0.01040436	     -0.00486927	     -8.36121758	      6.97861110	      2.94337834	     26.74834774	    105.99539948	     -0.01659531	      0.02284111	     -0.00524363	     77.55190086	     73.81754824	    -32.17410726	     15.85246121	      3.27012845
      1.71666670	     -4.93284085	     -1.07037584	      2.62855412	      0.25867937	      0.93523896	     -0.07592279	      0.01446770	     -4.35570179	     -8.59805855	      1.05791738	      0.01846414	      3.25942802	     -7.44492959	     -7.49999987	      4.24673251	     -3.57891800	     -5.71994839	      0.60512595	      0.01056144	      5.96983407	      1.52676497	     -7.49999987	      1.59241662	      1.54206184	     -3.22120308	     -0.01793622	     -0.01044010	     -0.00482778	     -7.76103915	      7.10667657	      2.59430796	     26.60023788	    105.17490628	     -0.01634019	      0.02263985	     -0.00522796	     77.96750273	     74.55433313	    -31.27878944	     14.86657088	      3.17304635
      1.73333330	     -4.83958895	     -1.08590518	      2.55247810	      0.25897494	      0.93540847	     -0.07593029	     -0.06063531	     -4.34501409	     -8.61845804	      1.09244996	      0.01906685	      3.17377540	     -7.44401704	     -7.49999987	      4.14137462	     -3.59269063	     -5.87819050	      0.61236025	      0.01068770	      6.12570913	      1.62755310	     -7.49999987	      1.52233038	      1.55602688	     -3.63349133	     -0.01748897	     -0.01064518	     -0.00491813	     -7.36120908	      7.12861880	      3.25478363	     26.94625507	    103.23026776	     -0.01709301	      0.02397134	     -0.00515848	     77.55403390	     74.83001935	    -32.30659213	     15.13791873	      3.26612866
      1.75000000	     -5.10457937	     -1.13435493	      2.50817258	      0.25826021	      0.93496204	     -0.07603202	      0.52684232	     -4.35424575	     -8.82705189	      1.70716580	      0.02979566	      3.53513073	     -7.08443785	     -7.49999987	      4.70423841	     -3.63360827	     -5.81949463	      1.09959696	      0.01919159	      6.29454992	      1.27785041	     -7.49999987	      2.11253489	      1.88145550	     -4.29010505	     -0.01485792	     -0.00757699	     -0.00516751	     -6.81256966	      7.32349863	      4.03014002	     26.84010239	     99.56944388	     -0.01530532	      0.02467507	     -0.00506521	     76.15185995	     74.53556226	    -33.93946861	     16.99576299	      7.06332945
      1.76666670	     -4.94494678	     -1.13087887	      2.53569915	      0.25902964	      0.93528046	     -0.07591536	      0.02436634	     -4.30142140	     -8.68081468	      1.15720624	      0.02019706	      3.21937416	     -7.25617652	     -7.49999987	      4.26875967	     -3.62147865	     -5.96112085	      0.61106221	      0.01066505	      6.22069377	      1.64021668	     -7.49999987	      1.85643505	      1.51523349	     -4.06235452	     -0.01763531	     -0.01029798	     -0.00490480	     -7.74367484	      6.98970158	      2.58959047	     27.04488663	    107.07066150	     -0.01688598	      0.02411825	     -0.00501117	     77.38646296	     75.77114746	    -27.91108496	     14.03520837	      2.94906269
      1.78333330	     -5.20818330	     -1.20968540	      2.47482497	      0.25804083	      0.93762994	     -0.07608130	      0.70834589	     -4.32306861	     -8.97152540	      1.86215634	      0.03250076	      3.69686636	     -6.71462030	     -7.49999987	      4.91278482	     -3.70291906	     -5.94685139	      1.23353485	      0.02152924	      6.41334491	      1.31326380	     -7.49999987	      2.44287079	      2.00874346	     -4.92213286	     -0.01368462	     -0.00652156	     -0.00519188	     -6.42139620	      7.35979269	      4.27099428	     26.88762041	     99.10919329	     -0.01533390	      0.02510816	     -0.00500934	     75.37576877	     75.29562536	    -31.94656576	     17.06267466	      8.11733737
      1.80000000	     -4.96067369	     -1.19006415	      2.49844424	      0.25894008	      0.93833308	     -0.07612706	      0.05041009	     -4.26873101	     -8.76507655	      1.12999694	      0.01972217	      3.15968634	     -6.87781633	     -7.49999987	      4.31685263	     -3.65750881	     -6.03241311	      0.58056117	      0.01013270	      6.17050642	      1.64186063	     -7.49999987	      1.98342561	      1.53168573	     -4.05381873	     -0.01868415	     -0.01022138	     -0.00487799	     -8.74887709	      7.03683791	      3.09884011	     27.47512863	    108.56904369	     -0.01732555	      0.02492093	     -0.00491909	     77.65530415	     76.50165516	    -26.13503434	     13.65317943	      2.93902411
      1.81666670	     -4.95778279	     -1.17565665	      2.46225888	      0.25857935	      0.94066876	     -0.07600336	      0.06843318	     -4.30625214	     -8.62607930	      1.13319695	      0.01977802	      3.08400967	     -6.84066893	     -7.49999987	      4.31461395	     -3.62417468	     -6.11427369	      0.56966639	      0.00994255	      6.15809280	      1.69552463	     -7.49999987	      2.01299009	      1.53109864	     -4.04258971	     -0.01896867	     -0.01021480	     -0.00488383	     -8.78516074	      7.14180973	      3.48102863	     27.59217875	    108.80905668	     -0.01800943	      0.02556798	     -0.00489236	     77.74410313	     76.58957560	    -25.30166830	     13.66439560	      2.87073830
      1.83333330	     -4.89657600	     -1.15761052	      2.45521345	      0.25867658	      0.94031734	     -0.07604762	     -0.00631486	     -4.33090031	     -8.55374002	      1.14245824	      0.01993966	      3.09056836	     -6.74423830	     -7.49999987	      4.23663523	     -3.58903715	     -6.14891094	      0.55898922	      0.00975620	      6.09036052	      1.60284123	     -7.49999987	      1.91394122	      1.49893291	     -3.69033165	     -0.02057447	     -0.01029074	     -0.00485563	     -8.76669774	      7.25220702	      3.46574426	     27.61620285	    109.34911571	     -0.01837825	      0.02622830	     -0.00487937	     78.30940105	     76.83194665	    -24.50556540	     13.58130800	      2.97373153
      1.85000000	     -4.84861675	     -1.13710993	      2.41405216	      0.25842484	      0.93980970	     -0.07607331	     -0.04985093	     -4.35935283	     -8.52837000	      1.16996060	      0.02041966	      3.04924294	     -6.68893076	     -7.49999987	      4.19170863	     -3.56566490	     -6.21368282	      0.54528780	      0.00951707	      6.03224359	      1.58707938	     -7.49999987	      1.87934702	      1.50506639	     -3.42982989	     -0.02080076	     -0.01010825	     -0.00481327	     -8.56711227	      7.47221475	      3.67247299	     27.59738334	    109.58460974	     -0.01882549	      0.02718479	     -0.00485549	     78.75594252	     76.90111777	    -23.53205179	     13.73344183	      2.87814666
      1.86666670	     -4.82210980	     -1.12661239	      2.35730407	      0.25848952	      0.94226145	     -0.07598122	     -0.05815269	     -4.36407325	     -8.53804321	      1.18095506	      0.02061155	      3.03806369	     -6.58290311	     -7.49999987	      4.16791018	     -3.55809405	     -6.29335256	      0.52189969	      0.00910887	      5.98743756	      1.61188387	     -7.49999987	      1.91258511	      1.55903648	     -3.24545958	     -0.02039079	     -0.01019202	     -0.00482366	     -8.28911794	      7.64358321	      4.37575563	     27.41433360	    108.36756500	     -0.01848168	      0.02826351	     -0.00483058	     79.10097988	     76.82209036	    -23.91182897	     14.27138584	      2.78814484
